<?xml version="1.0" encoding="UTF-8" standalone="no"?>
<!DOCTYPE svg PUBLIC "-//W3C//DTD SVG 1.1//EN"
 "http://www.w3.org/Graphics/SVG/1.1/DTD/svg11.dtd">
<!-- Generated by graphviz version 2.38.0 (20140413.2041)
 -->
<!-- Title: G Pages: 1 -->
<svg width="726pt" height="584pt"
 viewBox="0.00 0.00 725.50 584.00" xmlns="http://www.w3.org/2000/svg" xmlns:xlink="http://www.w3.org/1999/xlink">
<g id="graph0" class="graph" transform="scale(1 1) rotate(0) translate(4 580)">
<title>G</title>
<polygon fill="white" stroke="none" points="-4,4 -4,-580 721.5,-580 721.5,4 -4,4"/>
<!-- R -->
<g id="node1" class="node"><title>R</title>
<polygon fill="none" stroke="black" points="238.5,-576 184.5,-576 184.5,-540 238.5,-540 238.5,-576"/>
<text text-anchor="middle" x="211.5" y="-554.3" font-family="Times,serif" font-size="14.00">Root</text>
</g>
<!-- G -->
<g id="node2" class="node"><title>G</title>
<polygon fill="none" stroke="black" points="134,-396 31,-396 31,-360 134,-360 134,-396"/>
<text text-anchor="middle" x="82.5" y="-374.3" font-family="Times,serif" font-size="14.00">Garage Projects</text>
</g>
<!-- R&#45;&gt;G -->
<g id="edge1" class="edge"><title>R&#45;&gt;G</title>
<path fill="none" stroke="black" d="M199.131,-539.933C176.304,-508.435 127.457,-441.034 100.792,-404.24"/>
<polygon fill="black" stroke="black" points="103.534,-402.059 94.8316,-396.016 97.8658,-406.167 103.534,-402.059"/>
</g>
<!-- OS -->
<g id="node5" class="node"><title>OS</title>
<polygon fill="none" stroke="black" points="401.5,-396 281.5,-396 281.5,-360 401.5,-360 401.5,-396"/>
<text text-anchor="middle" x="341.5" y="-374.3" font-family="Times,serif" font-size="14.00">Operating Systems</text>
</g>
<!-- R&#45;&gt;OS -->
<g id="edge4" class="edge"><title>R&#45;&gt;OS</title>
<path fill="none" stroke="black" d="M223.965,-539.933C246.969,-508.435 296.194,-441.034 323.066,-404.24"/>
<polygon fill="black" stroke="black" points="326.001,-406.156 329.073,-396.016 320.348,-402.027 326.001,-406.156"/>
</g>
<!-- HCB -->
<g id="node3" class="node"><title>HCB</title>
<polygon fill="none" stroke="black" points="131,-216 24,-216 24,-180 131,-180 131,-216"/>
<text text-anchor="middle" x="77.5" y="-194.3" font-family="Times,serif" font-size="14.00">Hang Chipboard</text>
</g>
<!-- G&#45;&gt;HCB -->
<g id="edge2" class="edge"><title>G&#45;&gt;HCB</title>
<path fill="none" stroke="black" d="M82.0206,-359.933C81.1507,-328.966 79.3061,-263.299 78.2621,-226.129"/>
<polygon fill="black" stroke="black" points="81.7575,-225.913 77.978,-216.016 74.7602,-226.11 81.7575,-225.913"/>
</g>
<!-- HCBS -->
<g id="node4" class="node"><title>HCBS</title>
<polygon fill="none" stroke="black" points="153,-36 0,-36 0,-0 153,-0 153,-36"/>
<text text-anchor="middle" x="76.5" y="-14.3" font-family="Times,serif" font-size="14.00">Hang Chipboard Support</text>
</g>
<!-- HCB&#45;&gt;HCBS -->
<g id="edge3" class="edge"><title>HCB&#45;&gt;HCBS</title>
<path fill="none" stroke="black" d="M77.4041,-179.933C77.2301,-148.966 76.8612,-83.2989 76.6524,-46.1292"/>
<polygon fill="black" stroke="black" points="80.1518,-45.9959 76.5956,-36.0157 73.1519,-46.0353 80.1518,-45.9959"/>
</g>
<!-- RHD -->
<g id="node6" class="node"><title>RHD</title>
<polygon fill="none" stroke="black" points="383,-216 300,-216 300,-180 383,-180 383,-216"/>
<text text-anchor="middle" x="341.5" y="-194.3" font-family="Times,serif" font-size="14.00">Replace HD</text>
</g>
<!-- OS&#45;&gt;RHD -->
<g id="edge5" class="edge"><title>OS&#45;&gt;RHD</title>
<path fill="none" stroke="black" d="M341.5,-359.933C341.5,-328.966 341.5,-263.299 341.5,-226.129"/>
<polygon fill="black" stroke="black" points="345,-226.016 341.5,-216.016 338,-226.016 345,-226.016"/>
</g>
<!-- SSD -->
<g id="node7" class="node"><title>SSD</title>
<polygon fill="none" stroke="black" points="717.5,-216 527.5,-216 527.5,-180 717.5,-180 717.5,-216"/>
<text text-anchor="middle" x="622.5" y="-194.3" font-family="Times,serif" font-size="14.00">Shop For Swappable Drive Bay</text>
</g>
<!-- OS&#45;&gt;SSD -->
<g id="edge7" class="edge"><title>OS&#45;&gt;SSD</title>
<path fill="none" stroke="black" d="M368.443,-359.933C419.427,-327.637 529.994,-257.598 586.971,-221.506"/>
<polygon fill="black" stroke="black" points="589.063,-224.324 595.638,-216.016 585.317,-218.41 589.063,-224.324"/>
</g>
<!-- INIX -->
<g id="node8" class="node"><title>INIX</title>
<polygon fill="none" stroke="black" points="389.5,-36 297.5,-36 297.5,-0 389.5,-0 389.5,-36"/>
<text text-anchor="middle" x="343.5" y="-14.3" font-family="Times,serif" font-size="14.00">Install NixOS</text>
</g>
<!-- RHD&#45;&gt;INIX -->
<g id="edge6" class="edge"><title>RHD&#45;&gt;INIX</title>
<path fill="none" stroke="black" d="M341.692,-179.933C342.04,-148.966 342.778,-83.2989 343.195,-46.1292"/>
<polygon fill="black" stroke="black" points="346.696,-46.0544 343.309,-36.0157 339.697,-45.9757 346.696,-46.0544"/>
</g>
</g>
</svg>
