<?xml version="1.0" encoding="UTF-8" standalone="no"?>
<!DOCTYPE svg PUBLIC "-//W3C//DTD SVG 1.1//EN"
 "http://www.w3.org/Graphics/SVG/1.1/DTD/svg11.dtd">
<!-- Generated by graphviz version 2.38.0 (20140413.2041)
 -->
<!-- Title: G Pages: 1 -->
<svg width="517pt" height="404pt"
 viewBox="0.00 0.00 517.00 404.00" xmlns="http://www.w3.org/2000/svg" xmlns:xlink="http://www.w3.org/1999/xlink">
<g id="graph0" class="graph" transform="scale(1 1) rotate(0) translate(4 400)">
<title>G</title>
<polygon fill="white" stroke="none" points="-4,4 -4,-400 513,-400 513,4 -4,4"/>
<!-- EH -->
<g id="node1" class="node"><title>EH</title>
<polygon fill="none" stroke="red" points="223.5,-396 127.5,-396 127.5,-360 223.5,-360 223.5,-396"/>
<text text-anchor="middle" x="175.5" y="-374.3" font-family="Times,serif" font-size="14.00">Enjoy Holiday</text>
</g>
<!-- BT -->
<g id="node2" class="node"><title>BT</title>
<polygon fill="none" stroke="green" points="85,-216 0,-216 0,-180 85,-180 85,-216"/>
<text text-anchor="middle" x="42.5" y="-194.3" font-family="Times,serif" font-size="14.00">Book tickets</text>
</g>
<!-- EH&#45;&gt;BT -->
<g id="edge1" class="edge"><title>EH&#45;&gt;BT</title>
<path fill="none" stroke="black" d="M162.747,-359.933C139.212,-328.435 88.8512,-261.034 61.3594,-224.24"/>
<polygon fill="black" stroke="black" points="64.0034,-221.932 55.214,-216.016 58.3958,-226.121 64.0034,-221.932"/>
</g>
<!-- PSNB -->
<g id="node3" class="node"><title>PSNB</title>
<polygon fill="none" stroke="red" points="388,-216 229,-216 229,-180 388,-180 388,-216"/>
<text text-anchor="middle" x="308.5" y="-194.3" font-family="Times,serif" font-size="14.00">Pack suitcase night before</text>
</g>
<!-- EH&#45;&gt;PSNB -->
<g id="edge2" class="edge"><title>EH&#45;&gt;PSNB</title>
<path fill="none" stroke="black" d="M188.253,-359.933C211.788,-328.435 262.149,-261.034 289.641,-224.24"/>
<polygon fill="black" stroke="black" points="292.604,-226.121 295.786,-216.016 286.997,-221.932 292.604,-226.121"/>
</g>
<!-- BGB -->
<g id="node4" class="node"><title>BGB</title>
<polygon fill="none" stroke="orange" points="227.5,-36 123.5,-36 123.5,-0 227.5,-0 227.5,-36"/>
<text text-anchor="middle" x="175.5" y="-14.3" font-family="Times,serif" font-size="14.00">Buy guide book</text>
</g>
<!-- PSNB&#45;&gt;BGB -->
<g id="edge3" class="edge"><title>PSNB&#45;&gt;BGB</title>
<path fill="none" stroke="black" d="M295.747,-179.933C272.212,-148.435 221.851,-81.034 194.359,-44.2404"/>
<polygon fill="black" stroke="black" points="197.003,-41.9316 188.214,-36.0157 191.396,-46.1215 197.003,-41.9316"/>
</g>
<!-- BEC -->
<g id="node5" class="node"><title>BEC</title>
<polygon fill="none" stroke="orange" points="509,-36 372,-36 372,-0 509,-0 509,-36"/>
<text text-anchor="middle" x="440.5" y="-14.3" font-family="Times,serif" font-size="14.00">Buy electric converter</text>
</g>
<!-- PSNB&#45;&gt;BEC -->
<g id="edge4" class="edge"><title>PSNB&#45;&gt;BEC</title>
<path fill="none" stroke="black" d="M321.157,-179.933C344.515,-148.435 394.497,-81.034 421.782,-44.2404"/>
<polygon fill="black" stroke="black" points="424.736,-46.1329 427.882,-36.0157 419.114,-41.9633 424.736,-46.1329"/>
</g>
</g>
</svg>
