<?xml version="1.0" encoding="UTF-8" standalone="no"?>
<!DOCTYPE svg PUBLIC "-//W3C//DTD SVG 1.1//EN"
 "http://www.w3.org/Graphics/SVG/1.1/DTD/svg11.dtd">
<!-- Generated by graphviz version 2.38.0 (20140413.2041)
 -->
<!-- Title: G Pages: 1 -->
<svg width="808pt" height="404pt"
 viewBox="0.00 0.00 808.00 404.00" xmlns="http://www.w3.org/2000/svg" xmlns:xlink="http://www.w3.org/1999/xlink">
<g id="graph0" class="graph" transform="scale(1 1) rotate(0) translate(4 400)">
<title>G</title>
<polygon fill="white" stroke="none" points="-4,4 -4,-400 804,-400 804,4 -4,4"/>
<!-- G -->
<g id="node1" class="node"><title>G</title>
<polygon fill="none" stroke="red" points="128,-396 25,-396 25,-360 128,-360 128,-396"/>
<text text-anchor="middle" x="76.5" y="-374.3" font-family="Times,serif" font-size="14.00">Garage Projects</text>
</g>
<!-- HCB -->
<g id="node2" class="node"><title>HCB</title>
<polygon fill="none" stroke="black" points="130,-216 23,-216 23,-180 130,-180 130,-216"/>
<text text-anchor="middle" x="76.5" y="-194.3" font-family="Times,serif" font-size="14.00">Hang Chipboard</text>
</g>
<!-- G&#45;&gt;HCB -->
<g id="edge1" class="edge"><title>G&#45;&gt;HCB</title>
<path fill="none" stroke="black" d="M76.5,-359.933C76.5,-328.966 76.5,-263.299 76.5,-226.129"/>
<polygon fill="black" stroke="black" points="80.0001,-226.016 76.5,-216.016 73.0001,-226.016 80.0001,-226.016"/>
</g>
<!-- HCBS -->
<g id="node3" class="node"><title>HCBS</title>
<polygon fill="none" stroke="black" points="153,-36 0,-36 0,-0 153,-0 153,-36"/>
<text text-anchor="middle" x="76.5" y="-14.3" font-family="Times,serif" font-size="14.00">Hang Chipboard Support</text>
</g>
<!-- HCB&#45;&gt;HCBS -->
<g id="edge2" class="edge"><title>HCB&#45;&gt;HCBS</title>
<path fill="none" stroke="black" d="M76.5,-179.933C76.5,-148.966 76.5,-83.2989 76.5,-46.1292"/>
<polygon fill="black" stroke="black" points="80.0001,-46.0157 76.5,-36.0157 73.0001,-46.0158 80.0001,-46.0157"/>
</g>
<!-- EH -->
<g id="node4" class="node"><title>EH</title>
<polygon fill="none" stroke="red" points="500.5,-396 404.5,-396 404.5,-360 500.5,-360 500.5,-396"/>
<text text-anchor="middle" x="452.5" y="-374.3" font-family="Times,serif" font-size="14.00">Enjoy Holiday</text>
</g>
<!-- BT -->
<g id="node5" class="node"><title>BT</title>
<polygon fill="none" stroke="green" points="361,-216 276,-216 276,-180 361,-180 361,-216"/>
<text text-anchor="middle" x="318.5" y="-194.3" font-family="Times,serif" font-size="14.00">Book tickets</text>
</g>
<!-- EH&#45;&gt;BT -->
<g id="edge3" class="edge"><title>EH&#45;&gt;BT</title>
<path fill="none" stroke="black" d="M439.652,-359.933C415.94,-328.435 365.2,-261.034 337.501,-224.24"/>
<polygon fill="black" stroke="black" points="340.12,-221.9 331.31,-216.016 334.528,-226.11 340.12,-221.9"/>
</g>
<!-- PSNB -->
<g id="node6" class="node"><title>PSNB</title>
<polygon fill="none" stroke="red" points="664,-216 505,-216 505,-180 664,-180 664,-216"/>
<text text-anchor="middle" x="584.5" y="-194.3" font-family="Times,serif" font-size="14.00">Pack suitcase night before</text>
</g>
<!-- EH&#45;&gt;PSNB -->
<g id="edge4" class="edge"><title>EH&#45;&gt;PSNB</title>
<path fill="none" stroke="black" d="M465.157,-359.933C488.515,-328.435 538.497,-261.034 565.782,-224.24"/>
<polygon fill="black" stroke="black" points="568.736,-226.133 571.882,-216.016 563.114,-221.963 568.736,-226.133"/>
</g>
<!-- BGB -->
<g id="node7" class="node"><title>BGB</title>
<polygon fill="none" stroke="orange" points="518.5,-36 414.5,-36 414.5,-0 518.5,-0 518.5,-36"/>
<text text-anchor="middle" x="466.5" y="-14.3" font-family="Times,serif" font-size="14.00">Buy guide book</text>
</g>
<!-- PSNB&#45;&gt;BGB -->
<g id="edge5" class="edge"><title>PSNB&#45;&gt;BGB</title>
<path fill="none" stroke="black" d="M573.186,-179.933C552.393,-148.568 508,-81.6021 483.542,-44.7078"/>
<polygon fill="black" stroke="black" points="486.223,-42.4167 477.78,-36.0157 480.388,-46.2845 486.223,-42.4167"/>
</g>
<!-- BEC -->
<g id="node8" class="node"><title>BEC</title>
<polygon fill="none" stroke="orange" points="800,-36 663,-36 663,-0 800,-0 800,-36"/>
<text text-anchor="middle" x="731.5" y="-14.3" font-family="Times,serif" font-size="14.00">Buy electric converter</text>
</g>
<!-- PSNB&#45;&gt;BEC -->
<g id="edge6" class="edge"><title>PSNB&#45;&gt;BEC</title>
<path fill="none" stroke="black" d="M598.595,-179.933C624.717,-148.302 680.74,-80.4645 711.039,-43.7763"/>
<polygon fill="black" stroke="black" points="713.779,-45.955 717.448,-36.0157 708.381,-41.4976 713.779,-45.955"/>
</g>
</g>
</svg>
