<?xml version="1.0" encoding="UTF-8" standalone="no"?>
<!DOCTYPE svg PUBLIC "-//W3C//DTD SVG 1.1//EN"
 "http://www.w3.org/Graphics/SVG/1.1/DTD/svg11.dtd">
<!-- Generated by graphviz version 2.38.0 (20140413.2041)
 -->
<!-- Title: G Pages: 1 -->
<svg width="161pt" height="584pt"
 viewBox="0.00 0.00 161.00 584.00" xmlns="http://www.w3.org/2000/svg" xmlns:xlink="http://www.w3.org/1999/xlink">
<g id="graph0" class="graph" transform="scale(1 1) rotate(0) translate(4 580)">
<title>G</title>
<polygon fill="white" stroke="none" points="-4,4 -4,-580 157,-580 157,4 -4,4"/>
<!-- R -->
<g id="node1" class="node"><title>R</title>
<polygon fill="none" stroke="black" points="103.5,-576 49.5,-576 49.5,-540 103.5,-540 103.5,-576"/>
<text text-anchor="middle" x="76.5" y="-554.3" font-family="Times,serif" font-size="14.00">Root</text>
</g>
<!-- G -->
<g id="node2" class="node"><title>G</title>
<polygon fill="none" stroke="red" points="128,-396 25,-396 25,-360 128,-360 128,-396"/>
<text text-anchor="middle" x="76.5" y="-374.3" font-family="Times,serif" font-size="14.00">Garage Projects</text>
</g>
<!-- R&#45;&gt;G -->
<g id="edge1" class="edge"><title>R&#45;&gt;G</title>
<path fill="none" stroke="black" d="M76.5,-539.933C76.5,-508.966 76.5,-443.299 76.5,-406.129"/>
<polygon fill="black" stroke="black" points="80.0001,-406.016 76.5,-396.016 73.0001,-406.016 80.0001,-406.016"/>
</g>
<!-- HCB -->
<g id="node3" class="node"><title>HCB</title>
<polygon fill="none" stroke="black" points="130,-216 23,-216 23,-180 130,-180 130,-216"/>
<text text-anchor="middle" x="76.5" y="-194.3" font-family="Times,serif" font-size="14.00">Hang Chipboard</text>
</g>
<!-- G&#45;&gt;HCB -->
<g id="edge2" class="edge"><title>G&#45;&gt;HCB</title>
<path fill="none" stroke="black" d="M76.5,-359.933C76.5,-328.966 76.5,-263.299 76.5,-226.129"/>
<polygon fill="black" stroke="black" points="80.0001,-226.016 76.5,-216.016 73.0001,-226.016 80.0001,-226.016"/>
</g>
<!-- HCBS -->
<g id="node4" class="node"><title>HCBS</title>
<polygon fill="none" stroke="black" points="153,-36 0,-36 0,-0 153,-0 153,-36"/>
<text text-anchor="middle" x="76.5" y="-14.3" font-family="Times,serif" font-size="14.00">Hang Chipboard Support</text>
</g>
<!-- HCB&#45;&gt;HCBS -->
<g id="edge3" class="edge"><title>HCB&#45;&gt;HCBS</title>
<path fill="none" stroke="black" d="M76.5,-179.933C76.5,-148.966 76.5,-83.2989 76.5,-46.1292"/>
<polygon fill="black" stroke="black" points="80.0001,-46.0157 76.5,-36.0157 73.0001,-46.0158 80.0001,-46.0157"/>
</g>
</g>
</svg>
